<svg width="261" height="227" viewBox="0 0 261 227" fill="none" xmlns="http://www.w3.org/2000/svg">
<path d="M31.394 183.487L8.88426 171.833C7.61587 171.177 7.61587 170.109 8.88426 169.453L139.816 101.652C141.085 100.996 143.145 100.996 144.414 101.652L166.923 113.307C168.192 113.962 168.192 115.03 166.923 115.686L35.9912 183.487C34.7228 184.143 32.6624 184.143 31.394 183.487Z" fill="#CAEEE7"/>
<path d="M128.152 188.311L74.0927 160.317L141.65 125.398L195.648 153.362L128.152 188.311Z" fill="#CAEEE7"/>
<path d="M202.793 200.795C216.907 200.795 228.349 194.87 228.349 187.56C228.349 180.251 216.907 174.326 202.793 174.326C188.678 174.326 177.237 180.251 177.237 187.56C177.237 194.87 188.678 200.795 202.793 200.795Z" fill="#CAEEE7"/>
<path d="M237.083 171.624C239.853 173.059 239.853 175.384 237.083 176.82C234.314 178.256 229.822 178.256 227.053 176.82C224.283 175.384 224.283 173.059 227.053 171.624C229.822 170.188 234.314 170.188 237.083 171.624Z" fill="#CAEEE7"/>
<path d="M112.305 162.716L131.658 152.681C133.652 151.648 134.649 150.296 134.649 148.94C134.649 147.584 134.66 146.526 134.66 146.526L114.581 136.371C113.518 135.82 112.654 134.479 112.654 133.381V111.984L78.8561 129.501V150.897C78.8561 152 79.7146 153.337 80.7836 153.888L97.8653 162.716C101.853 164.782 108.323 164.782 112.311 162.716H112.305Z" fill="#27DEBF"/>
<g opacity="0.6">
<path d="M112.305 162.716L131.658 152.681C133.652 151.648 134.649 150.296 134.649 148.94C134.649 147.584 134.66 146.526 134.66 146.526L114.581 136.371C113.518 135.82 112.654 134.479 112.654 133.381V111.984L78.8561 129.501V150.897C78.8561 152 79.7146 153.337 80.7836 153.888L97.8653 162.716C101.853 164.782 108.323 164.782 112.311 162.716H112.305Z" fill="black"/>
</g>
<path opacity="0.3" d="M86.9704 154.682V157.087L80.778 153.883C79.7201 153.336 78.8561 151.995 78.8561 150.892V129.496L85.2977 126.162C85.4307 127.628 85.5747 129.143 85.7076 130.623L81.1935 132.968V149.685C81.1935 150.793 82.052 152.129 83.1154 152.675L86.976 154.682H86.9704Z" fill="black"/>
<path d="M81.1824 149.691C81.1824 150.793 82.0465 152.13 83.1099 152.681L97.8542 160.297C101.842 162.364 108.312 162.364 112.305 160.297L131.663 150.262C135.651 148.195 135.651 144.847 131.663 142.78L116.908 135.155C115.844 134.603 114.98 133.262 114.98 132.164V115.442L81.1824 132.959V149.681V149.691Z" fill="#27DEBF"/>
<path opacity="0.3" d="M81.1824 149.691C81.1824 150.793 82.0465 152.13 83.1099 152.681L97.8542 160.297C101.842 162.364 108.312 162.364 112.305 160.297L131.663 150.262C135.651 148.195 135.651 144.847 131.663 142.78L116.908 135.155C115.844 134.603 114.98 133.262 114.98 132.164V115.442L81.1824 132.959V149.681V149.691Z" fill="black"/>
<path opacity="0.5" d="M120.835 137.196L116.913 135.164C115.85 134.613 114.986 133.272 114.986 132.174V115.452L81.1879 132.969V149.69C81.1879 150.793 82.052 152.13 83.1154 152.681L86.9704 154.678L120.84 137.196H120.835Z" fill="black"/>
<path d="M134.654 146.525V148.94C134.654 150.296 133.652 151.642 131.663 152.681L112.311 162.711C110.4 163.709 107.918 164.206 105.415 164.246V161.841C107.918 161.811 110.4 161.295 112.311 160.306L131.663 150.266C133.652 149.238 134.654 147.882 134.654 146.525Z" fill="#27DEBF"/>
<path opacity="0.5" d="M134.654 146.525V148.94C134.654 150.296 133.652 151.642 131.663 152.681L112.311 162.711C110.4 163.709 107.918 164.206 105.415 164.246V161.841C107.918 161.811 110.4 161.295 112.311 160.306L131.663 150.266C133.652 149.238 134.654 147.882 134.654 146.525Z" fill="black"/>
<path d="M26.9131 170.47C28.1593 171.116 30.2475 171.081 31.5823 170.391C48.1988 161.787 145.682 111.308 162.298 102.704C163.628 102.014 164.708 100.339 164.708 98.9634V4.1275C164.708 2.75141 163.694 1.11203 162.448 0.466209C161.202 -0.179609 159.113 -0.144834 157.779 0.545694L27.0626 68.2274C25.7333 68.9179 24.6533 70.5921 24.6533 71.9682V166.809C24.6533 168.185 25.6613 169.824 26.9131 170.47Z" fill="#27DEBF"/>
<path d="M31.5823 170.391L162.298 102.704C163.628 102.014 164.708 100.339 164.708 98.9634V4.12257C164.708 2.74648 163.628 2.18512 162.298 2.87565L31.5823 70.5623C30.253 71.2528 29.1729 72.927 29.1729 74.3031V169.144C29.1729 170.52 30.2475 171.081 31.5768 170.391H31.5823Z" fill="#27DEBF"/>
<path opacity="0.5" d="M31.5823 170.391L162.298 102.704C163.628 102.014 164.708 100.339 164.708 98.9634V4.12257C164.708 2.74648 163.628 2.18512 162.298 2.87565L31.5823 70.5623C30.253 71.2528 29.1729 72.927 29.1729 74.3031V169.144C29.1729 170.52 30.2475 171.081 31.5768 170.391H31.5823Z" fill="black"/>
<path d="M31.2278 172.86C29.893 173.387 28.0486 173.367 26.9131 172.781C25.6669 172.13 24.6533 170.496 24.6533 169.11V160.476L29.1674 162.82V171.454C29.1674 172.711 30.0591 173.278 31.2223 172.86H31.2278Z" fill="#27DEBF"/>
<path opacity="0.5" d="M31.2278 172.86C29.893 173.387 28.0486 173.367 26.9131 172.781C25.6669 172.13 24.6533 170.496 24.6533 169.11V160.476L29.1674 162.82V171.454C29.1674 172.711 30.0591 173.278 31.2223 172.86H31.2278Z" fill="black"/>
<path d="M29.1674 162.816V171.45C29.1674 172.826 30.2475 173.387 31.5768 172.697L162.293 105.01C163.622 104.319 164.702 102.645 164.702 101.269V92.6201L29.1674 162.816Z" fill="#27DEBF"/>
<path opacity="0.3" d="M29.1729 162.801V171.45C29.1729 172.826 30.253 173.387 31.5823 172.697L162.298 105.01C163.628 104.319 164.708 102.645 164.708 101.269V92.6201L29.1729 162.801Z" fill="black"/>
<path d="M33.6871 151.98V75.6445C33.6871 74.8198 34.3351 73.8113 35.1327 73.399L158.737 9.39846C159.534 8.98613 160.182 9.31897 160.182 10.1486V86.4843C160.182 87.3089 159.54 88.3174 158.742 88.7297L35.1327 152.73C34.3351 153.143 33.6871 152.81 33.6871 151.98Z" fill="#27DEBF"/>
<path d="M33.6871 151.98V75.6445C33.6871 74.8198 34.3351 73.8113 35.1327 73.399L158.737 9.39846C159.534 8.98613 160.182 9.31897 160.182 10.1486V86.4843C160.182 87.3089 159.54 88.3174 158.742 88.7297L35.1327 152.73C34.3351 153.143 33.6871 152.81 33.6871 151.98Z" fill="#263238"/>
<path opacity="0.7" d="M29.8819 72.167C29.4499 72.8476 29.184 73.6126 29.1729 74.3032V162.815L24.6588 160.47V71.9633C24.6588 71.2728 24.9357 70.5077 25.3678 69.8271L29.8819 72.162V72.167Z" fill="black"/>
<path opacity="0.3" d="M164.68 3.77018C164.508 2.65738 163.506 2.25499 162.293 2.87597L31.5823 70.5626C30.9232 70.9054 30.325 71.4867 29.8819 72.1673L25.3678 69.8274C25.8053 69.1567 26.4035 68.5656 27.0682 68.2228L157.779 0.541086C159.113 -0.149442 161.196 -0.184217 162.448 0.466569C163.589 1.05277 164.525 2.47854 164.68 3.77018Z" fill="black"/>
<path d="M43.7844 90.2606C43.164 89.9376 42.66 89.1229 42.66 88.4374V80.0417C42.66 79.3562 43.1972 78.5216 43.8564 78.1788L166.89 14.4614C167.555 14.1186 168.59 14.1037 169.216 14.4217C169.842 14.7396 170.341 15.5593 170.341 16.2449V24.6405C170.341 25.3261 169.809 26.1607 169.144 26.5034L46.1051 90.2208C45.4405 90.5636 44.4047 90.5835 43.7844 90.2606Z" fill="#27DEBF"/>
<path opacity="0.4" d="M170.324 16.071C170.241 15.5146 169.737 15.3109 169.139 15.6239L46.1051 79.3413C45.7783 79.5151 45.4792 79.8082 45.2577 80.146L43.0089 78.9786C43.2304 78.6408 43.524 78.3527 43.8563 78.1788L166.89 14.4614C167.549 14.1186 168.59 14.0988 169.211 14.4217C169.781 14.7197 170.252 15.4252 170.324 16.071Z" fill="white"/>
<path d="M46.1051 158.568C46.1051 158.568 45.8005 158.767 45.1635 158.827C44.6705 158.871 44.1554 158.802 43.7843 158.608C43.1584 158.285 42.6599 157.47 42.6599 156.785V92.7793L44.9087 93.9467V157.947C44.9087 158.434 45.1801 158.717 45.5734 158.717C45.6287 158.717 45.8448 158.702 46.1051 158.568Z" fill="#F0F0F0"/>
<path opacity="0.1" d="M45.2576 80.146C45.0416 80.4788 44.9087 80.8613 44.9087 81.2041V93.9466L42.6544 92.7791V80.0416C42.6544 79.9969 42.6544 79.9572 42.6599 79.9125C42.671 79.8131 42.6821 79.7336 42.7043 79.6442C42.7652 79.4207 42.8704 79.1822 43.0033 78.9785L45.2521 80.146H45.2576Z" fill="black"/>
<path d="M170.335 16.2453V21.9931L82.1018 67.6921C81.4427 68.0349 80.9055 67.7567 80.9055 67.0711V64.8952C80.9055 64.2097 80.3682 63.9315 79.7035 64.2742L50.6081 79.3417C49.9435 79.6845 49.4062 80.5191 49.4062 81.2046V83.3805C49.4062 84.0661 48.869 84.9007 48.2098 85.2434L44.9087 86.9524V81.2046C44.9087 80.5191 45.446 79.6845 46.1051 79.3417L169.139 15.6243C169.798 15.2815 170.335 15.5597 170.335 16.2453Z" fill="#27DEBF"/>
<path d="M45.5734 158.464C45.2244 158.464 45.1856 158.101 45.1856 157.942V87.0913L48.3483 85.4519C48.736 85.2532 49.0462 84.354 49.6721 82.3619C49.9989 81.3137 50.4974 79.724 50.7521 79.5452L79.3158 64.751C79.5595 64.8652 80.0968 65.7147 80.4236 66.2264C81.1215 67.3293 81.5424 67.9502 82.0132 67.9502C82.0963 67.9502 82.1738 67.9304 82.2403 67.8956L170.058 22.4102V92.9732C170.058 93.5693 169.571 94.3245 169 94.6225L45.9666 158.34C45.8226 158.414 45.6897 158.454 45.5734 158.454V158.464Z" fill="#FAFAFA"/>
<path d="M169.781 22.8516V92.9825C169.781 93.4941 169.349 94.1648 168.862 94.4182L45.8282 158.136C45.6897 158.205 45.6011 158.215 45.5734 158.215C45.4626 158.215 45.4626 157.957 45.4626 157.942V87.2347L48.4868 85.6698C48.9631 85.4214 49.2622 84.5868 49.938 82.4358C50.2371 81.477 50.6857 80.0413 50.9294 79.7482L79.2826 65.0682C79.5263 65.3216 79.9306 65.9575 80.1854 66.3599C80.9553 67.577 81.3873 68.2129 82.0132 68.2129C82.1406 68.2129 82.268 68.1831 82.3788 68.1234L169.781 22.8566M170.341 21.9972L82.1074 67.6962C82.0797 67.7111 82.052 67.7161 82.0188 67.7161C81.3486 67.7161 79.986 64.5069 79.3103 64.5069C79.2771 64.5069 79.2494 64.5118 79.2217 64.5267L50.6137 79.3408C49.949 79.6836 48.8745 84.8998 48.2154 85.2426L44.9142 86.9515V157.947C44.9142 158.434 45.1857 158.717 45.5789 158.717C45.7395 158.717 45.9223 158.672 46.1106 158.568L169.144 94.8504C169.809 94.5076 170.341 93.673 170.341 92.9874V21.9922V21.9972Z" fill="#E0E0E0"/>
<path d="M65.9562 117.991L82.3511 109.501C82.7942 109.272 83.1487 109.456 83.1487 109.913V134.677C83.1487 135.135 82.7886 135.691 82.3511 135.919L65.9562 144.409C65.5131 144.638 65.1586 144.454 65.1586 143.997V119.232C65.1586 118.775 65.5186 118.219 65.9562 117.991Z" fill="#F0F0F0"/>
<path d="M68.9527 119.546L79.349 114.161C79.7922 113.932 80.1466 114.096 80.1466 114.524C80.1466 114.951 79.7866 115.487 79.349 115.716L68.9472 121.101C68.5041 121.329 68.1496 121.165 68.1496 120.738C68.1496 120.311 68.5096 119.775 68.9472 119.546H68.9527Z" fill="#E0E0E0"/>
<path d="M68.1551 123.56V124.122C68.1551 124.395 68.3711 124.509 68.637 124.37L69.1798 124.092C69.4456 123.953 69.6617 123.62 69.6617 123.347V122.785C69.6617 122.512 69.4456 122.398 69.1798 122.537L68.637 122.815C68.3711 122.954 68.1551 123.287 68.1551 123.56Z" fill="#27DEBF"/>
<path d="M71.1516 122.288C71.1516 122.715 71.5116 122.879 71.9492 122.65L79.3491 118.82C79.7922 118.592 80.1466 118.06 80.1466 117.628C80.1466 117.201 79.7866 117.037 79.3491 117.265L71.9492 121.096C71.5061 121.324 71.1516 121.856 71.1516 122.288Z" fill="#E0E0E0"/>
<path d="M68.1551 126.67V127.231C68.1551 127.504 68.3711 127.619 68.637 127.479L69.1798 127.201C69.4456 127.062 69.6617 126.729 69.6617 126.456V125.895C69.6617 125.621 69.4456 125.507 69.1798 125.646L68.637 125.925C68.3711 126.064 68.1551 126.396 68.1551 126.67Z" fill="#27DEBF"/>
<path d="M71.1516 125.398C71.1516 125.825 71.5116 125.989 71.9492 125.761L79.3491 121.931C79.7922 121.702 80.1466 121.171 80.1466 120.738C80.1466 120.311 79.7866 120.147 79.3491 120.376L71.9492 124.206C71.5061 124.434 71.1516 124.966 71.1516 125.398Z" fill="#E0E0E0"/>
<path d="M68.1551 129.775V130.337C68.1551 130.61 68.3711 130.724 68.637 130.585L69.1798 130.307C69.4456 130.168 69.6617 129.835 69.6617 129.562V129C69.6617 128.727 69.4456 128.613 69.1798 128.752L68.637 129.03C68.3711 129.169 68.1551 129.502 68.1551 129.775Z" fill="#27DEBF"/>
<path d="M71.1516 128.503C71.1516 128.93 71.5116 129.094 71.9492 128.865L79.3491 125.035C79.7922 124.807 80.1466 124.275 80.1466 123.843C80.1466 123.416 79.7866 123.252 79.3491 123.48L71.9492 127.31C71.5061 127.539 71.1516 128.07 71.1516 128.503Z" fill="#E0E0E0"/>
<path d="M68.1551 132.88V133.441C68.1551 133.714 68.3711 133.828 68.637 133.689L69.1798 133.411C69.4456 133.272 69.6617 132.939 69.6617 132.666V132.105C69.6617 131.831 69.4456 131.717 69.1798 131.856L68.637 132.134C68.3711 132.274 68.1551 132.606 68.1551 132.88Z" fill="#27DEBF"/>
<path d="M71.1516 131.603C71.1516 132.03 71.5116 132.194 71.9492 131.966L79.3491 128.136C79.7922 127.907 80.1466 127.376 80.1466 126.943C80.1466 126.516 79.7866 126.352 79.3491 126.581L71.9492 130.411C71.5061 130.639 71.1516 131.171 71.1516 131.603Z" fill="#E0E0E0"/>
<path d="M68.8918 136.66L79.2881 131.275C79.7312 131.047 80.0857 131.211 80.0857 131.638C80.0857 132.065 79.7257 132.602 79.2881 132.83L68.8862 138.215C68.4431 138.444 68.0886 138.28 68.0886 137.853C68.0886 137.425 68.4487 136.889 68.8862 136.66H68.8918Z" fill="#E0E0E0"/>
<path d="M68.0886 140.679V141.241C68.0886 141.514 68.3047 141.628 68.5705 141.489L69.1133 141.211C69.3792 141.072 69.5952 140.739 69.5952 140.466V139.904C69.5952 139.631 69.3792 139.517 69.1133 139.656L68.5705 139.934C68.3047 140.073 68.0886 140.406 68.0886 140.679Z" fill="#27DEBF"/>
<path d="M71.0907 139.402C71.0907 139.829 71.4507 139.993 71.8883 139.765L79.2881 135.935C79.7312 135.706 80.0857 135.174 80.0857 134.742C80.0857 134.31 79.7257 134.151 79.2881 134.38L71.8883 138.21C71.4452 138.438 71.0907 138.97 71.0907 139.402Z" fill="#E0E0E0"/>
<path d="M164.713 19.8518C165.544 19.4196 166.22 19.7723 166.22 20.6317C166.22 21.4911 165.544 22.5443 164.713 22.9765C163.882 23.4087 163.207 23.056 163.207 22.1966C163.207 21.3371 163.882 20.284 164.713 19.8518Z" fill="white"/>
<path d="M159.28 22.6584C160.11 22.2262 160.786 22.5789 160.786 23.4383C160.786 24.2978 160.11 25.351 159.28 25.7832C158.449 26.2154 157.773 25.8626 157.773 25.0032C157.773 24.1438 158.449 23.0906 159.28 22.6584Z" fill="white"/>
<path d="M153.846 25.4699C154.677 25.0377 155.353 25.3904 155.353 26.2499C155.353 27.1093 154.677 28.1625 153.846 28.5947C153.015 29.0269 152.34 28.6742 152.34 27.8147C152.34 26.9553 153.015 25.9021 153.846 25.4699Z" fill="white"/>
<path d="M170.335 21.9922V28.9869L44.9087 93.9462V86.9515L47.3735 85.6698C48.0326 85.327 48.2542 84.8054 48.5699 83.8069L49.4062 81.2038C49.6721 80.2996 49.9435 79.6836 50.6081 79.3408L79.2161 64.5267C79.8808 64.184 80.4014 64.1442 80.9055 64.8944L81.9301 66.5636C82.3068 67.1448 82.4951 67.4876 83.1542 67.1448L170.335 21.9922Z" fill="#E6E6E6"/>
<path d="M44.9087 86.9515V93.9462L42.6544 92.7788V85.7891L44.9087 86.9515Z" fill="#E0E0E0"/>
<path opacity="0.5" d="M50.4087 87.4534L48.5255 88.4271L49.2456 87.1901C49.3065 87.0808 49.3176 86.9467 49.2622 86.8871C49.2068 86.8274 49.1127 86.8722 49.0462 86.9765L48.0271 88.7401C48.0271 88.7401 48.0271 88.7401 48.0271 88.745C48.016 88.7649 48.0049 88.7897 47.9994 88.8096C47.9994 88.8146 47.9938 88.8245 47.9883 88.8295C47.9827 88.8593 47.9772 88.8891 47.9772 88.9189C47.9772 88.9487 47.9772 88.9735 47.9883 88.9984C47.9883 89.0033 47.9938 89.0083 47.9994 89.0133C48.0049 89.0282 48.016 89.0431 48.0271 89.0481L49.0462 89.7535C49.0739 89.7734 49.1127 89.7734 49.1459 89.7535C49.1902 89.7336 49.229 89.6839 49.2622 89.6243C49.3176 89.5101 49.3121 89.3809 49.2456 89.3362L48.5255 88.8394L50.4087 87.8657C50.4918 87.821 50.5583 87.6918 50.5583 87.5776C50.5583 87.4633 50.4918 87.4037 50.4087 87.4484V87.4534Z" fill="#455A64"/>
<path opacity="0.5" d="M51.9818 86.6439L53.865 85.6702L53.1449 85.1734C53.084 85.1287 53.0729 84.9995 53.1283 84.8853C53.1837 84.771 53.2778 84.7114 53.3443 84.7561L54.3635 85.4615C54.3745 85.4715 54.3856 85.4814 54.3911 85.4963C54.3911 85.4963 54.3967 85.5013 54.4022 85.5112C54.4078 85.5311 54.4133 85.5609 54.4133 85.5907C54.4133 85.6205 54.4133 85.6503 54.4022 85.6801C54.4022 85.6851 54.3967 85.695 54.3911 85.7C54.3856 85.7248 54.3745 85.7447 54.3635 85.7646C54.3635 85.7646 54.3635 85.7646 54.3635 85.7695L53.3443 87.5331C53.3166 87.5828 53.2778 87.6176 53.2446 87.6375C53.2003 87.6573 53.1615 87.6573 53.1283 87.6226C53.0729 87.5629 53.0784 87.4288 53.1449 87.3195L53.865 86.0825L51.9818 87.0562C51.8987 87.1009 51.8322 87.0413 51.8322 86.9271C51.8322 86.8128 51.8987 86.6836 51.9818 86.6389V86.6439Z" fill="#455A64"/>
<path opacity="0.5" d="M58.1575 81.7807C58.1465 81.6763 58.0468 81.6912 57.9969 81.8005L57.7366 82.3669C57.299 82.3222 56.7618 82.7096 56.4017 83.3902C55.9365 84.2745 55.9365 85.3227 56.4017 85.7251C56.6344 85.9238 56.939 85.9288 57.2492 85.7698C57.5538 85.6109 57.864 85.2929 58.0966 84.8508C58.1575 84.7365 58.1575 84.6074 58.0966 84.5527C58.0357 84.4981 57.9415 84.5527 57.8806 84.662C57.5317 85.3227 56.9667 85.6158 56.6178 85.3178C56.2688 85.0197 56.2688 84.2348 56.6178 83.574C56.867 83.1021 57.2215 82.8239 57.5317 82.809L57.3378 83.2362C57.2879 83.3455 57.3378 83.4499 57.4153 83.4051L58.1852 82.958C58.2406 82.9282 58.2794 82.8388 58.2683 82.7693L58.1575 81.7807Z" fill="#455A64"/>
<path opacity="0.5" d="M78.3908 67.7164L79.0777 66.4148C79.1607 66.2608 79.1607 66.077 79.0777 66.0075C78.9946 65.9379 78.8672 66.0075 78.7841 66.1615L78.0973 67.4631L77.4105 66.8719C77.3274 66.8023 77.2 66.8719 77.1169 67.0259C77.0338 67.1799 77.0338 67.3637 77.1169 67.4332L77.8037 68.0244L77.1169 69.326C77.0338 69.48 77.0338 69.6638 77.1169 69.7333C77.1557 69.7681 77.2111 69.7681 77.2665 69.7433C77.3218 69.7135 77.3717 69.6588 77.416 69.5843L78.1028 68.2827L78.7896 68.8739C78.8284 68.9087 78.8838 68.9087 78.9392 68.8839C78.9946 68.854 79.0444 68.7994 79.0887 68.7249C79.1718 68.5709 79.1718 68.3871 79.0887 68.3175L78.4019 67.7263L78.3908 67.7164Z" fill="#455A64"/>
<path d="M60.6555 83.38V81.204C60.6555 80.5185 61.1928 79.6839 61.8575 79.3411L162.392 27.2981C163.057 26.9553 163.589 27.2335 163.589 27.9191V30.095C163.589 30.7806 163.052 31.6152 162.387 31.9579L61.8519 84.0009C61.1873 84.3437 60.65 84.0655 60.65 83.38H60.6555Z" fill="#FAFAFA"/>
<path d="M161.689 28.4505L162.005 29.0516C162.027 29.0914 162.066 29.1013 162.11 29.0864L162.813 28.843C162.924 28.8032 162.969 28.9473 162.891 29.0814L162.381 29.9409C162.348 29.9955 162.337 30.0551 162.343 30.1048L162.465 30.8798C162.481 31.004 162.365 31.1629 162.265 31.153L161.634 31.0835C161.595 31.0835 161.545 31.1033 161.506 31.148L160.875 31.8684C160.775 31.9826 160.659 31.9429 160.675 31.7988L160.797 30.8997C160.803 30.845 160.792 30.7953 160.759 30.7755L160.249 30.4476C160.166 30.3929 160.21 30.2091 160.327 30.1296L161.03 29.6428C161.074 29.613 161.113 29.5583 161.135 29.4987L161.451 28.5747C161.501 28.4257 161.645 28.3512 161.695 28.4505H161.689Z" stroke="#E0E0E0" stroke-width="0.75" stroke-miterlimit="10"/>
<g opacity="0.5">
<path d="M165.001 27.0354C164.857 27.0354 164.719 26.9709 164.641 26.8467C164.525 26.6678 164.597 26.4393 164.791 26.3399L168.164 24.5913C168.363 24.4869 168.618 24.5515 168.729 24.7254C168.845 24.9042 168.773 25.1328 168.579 25.2321L165.206 26.9808C165.14 27.0156 165.068 27.0305 165.001 27.0305V27.0354Z" fill="#455A64"/>
<path d="M165.001 28.7845C164.857 28.7845 164.719 28.7199 164.641 28.5957C164.525 28.4168 164.597 28.1883 164.791 28.089L168.164 26.3403C168.363 26.236 168.618 26.3005 168.729 26.4744C168.845 26.6533 168.773 26.8818 168.579 26.9811L165.206 28.7298C165.14 28.7646 165.068 28.7795 165.001 28.7795V28.7845Z" fill="#455A64"/>
<path d="M165.001 30.5325C164.857 30.5325 164.719 30.4679 164.641 30.3437C164.525 30.1649 164.597 29.9364 164.791 29.837L168.164 28.0883C168.363 27.984 168.618 28.0486 168.729 28.2225C168.845 28.4013 168.773 28.6298 168.579 28.7292L165.206 30.4779C165.14 30.5126 165.068 30.5275 165.001 30.5275V30.5325Z" fill="#455A64"/>
</g>
<path d="M44.9087 93.9467L44.9032 100.931L170.324 35.987L170.335 28.9873L44.9087 93.9467Z" fill="#455A64"/>
<path d="M58.9607 89.4905V90.8418C58.9607 91.12 59.1767 91.2293 59.4481 91.0951L78.2911 81.3284V78.9736L59.4481 88.7404C59.1822 88.8795 58.9607 89.2173 58.9607 89.4955V89.4905Z" fill="#FAFAFA"/>
<path d="M80.8335 77.6569C81.0993 77.5178 81.3209 77.6321 81.3209 77.9103V79.2615C81.3209 79.5397 81.1049 79.8776 80.8335 80.0167L78.2856 81.3331V78.9784L80.8335 77.6619V77.6569Z" fill="#27DEBF"/>
<path d="M80.6451 79.5054L80.3626 79.426C80.3903 79.3167 80.407 79.2074 80.407 79.0981C80.407 78.8397 80.3128 78.641 80.1466 78.5516C80.0248 78.487 79.8752 78.497 79.7312 78.5715C79.4155 78.7354 79.1663 79.2024 79.1663 79.6296C79.1663 79.888 79.2604 80.0867 79.4266 80.1761C79.482 80.2059 79.5429 80.2208 79.6094 80.2208C79.6869 80.2208 79.7645 80.2009 79.842 80.1612C80.0359 80.0618 80.1965 79.8532 80.3017 79.6098L80.5842 79.6892C80.5842 79.6892 80.6064 79.6892 80.6174 79.6892C80.6617 79.6892 80.7061 79.6644 80.7171 79.6247C80.7337 79.575 80.7061 79.5203 80.6507 79.5054H80.6451ZM79.7312 79.9923C79.6537 80.032 79.5817 80.037 79.5263 80.0122C79.4321 79.9625 79.3712 79.8184 79.3712 79.6296C79.3712 79.2719 79.5817 78.8646 79.8309 78.7354C79.8752 78.7106 79.9195 78.7006 79.9583 78.7006C79.986 78.7006 80.0082 78.7056 80.0359 78.7205C80.13 78.7702 80.1909 78.9143 80.1909 79.103C80.1909 79.4607 79.9805 79.8681 79.7312 79.9973V79.9923Z" fill="#FAFAFA"/>
<path d="M55.6706 90.6981L54.3801 91.3638C54.1142 91.5029 53.8982 91.8357 53.8982 92.1089V93.4453C53.8982 93.7185 54.1142 93.8328 54.3801 93.6937L55.6651 93.028C55.9309 92.8889 56.147 92.556 56.147 92.2828V90.9465C56.147 90.6732 55.9309 90.559 55.6651 90.6981H55.6706Z" fill="#FAFAFA"/>
<path d="M100.33 67.0058C99.3829 67.4977 98.613 68.6949 98.613 69.6785C98.613 70.6622 99.3829 71.0596 100.33 70.5678C101.277 70.076 102.047 68.8787 102.047 67.8951C102.047 66.9114 101.277 66.514 100.33 67.0058Z" fill="#27DEBF"/>
<path d="M100.131 68.571C100.075 68.571 100.025 68.5611 99.9756 68.5362C99.8704 68.4816 99.8094 68.3723 99.8094 68.2282C99.8094 67.9649 100.009 67.6569 100.264 67.5228C100.402 67.4532 100.535 67.4433 100.646 67.498C100.751 67.5526 100.812 67.6619 100.812 67.806C100.812 68.0693 100.613 68.3773 100.358 68.5114C100.28 68.5511 100.203 68.571 100.131 68.571Z" fill="white"/>
<path d="M101.011 68.6751C100.845 68.5856 100.629 68.6006 100.408 68.7148L100.158 68.844C99.7263 69.0675 99.3829 69.5991 99.3829 70.0462V70.2052C99.6266 70.3294 99.9645 70.3045 100.33 70.1157C100.701 69.927 101.034 69.5991 101.277 69.2215V69.1818C101.277 68.9433 101.178 68.7595 101.006 68.6701L101.011 68.6751Z" fill="white"/>
<path d="M104.263 65.8086L116.033 59.7131C116.509 59.4647 116.897 59.6534 116.897 60.1304C116.897 60.6073 116.509 61.1984 116.033 61.4419L104.263 67.5374C103.786 67.7858 103.399 67.597 103.399 67.1201C103.399 66.6432 103.786 66.052 104.263 65.8086Z" fill="#E0E0E0"/>
<path d="M122.231 56.5187L129.531 52.6984C130.007 52.45 130.395 52.6388 130.395 53.1157C130.395 53.5926 130.007 54.1838 129.531 54.4272L122.231 58.2475C121.754 58.4959 121.366 58.3071 121.366 57.8302C121.366 57.3533 121.754 56.7671 122.231 56.5187Z" fill="#E0E0E0"/>
<path d="M135.745 49.5538L140.786 46.9308C141.262 46.6824 141.65 46.8712 141.65 47.3481C141.65 47.825 141.262 48.4162 140.786 48.6596L135.751 51.2827C135.274 51.531 134.887 51.3423 134.887 50.8654C134.887 50.3884 135.274 49.7973 135.751 49.5538H135.745Z" fill="#E0E0E0"/>
<path d="M119.151 60.3442C119.035 60.3442 118.94 60.2597 118.94 60.1554V57.8255C118.94 57.7212 119.035 57.6367 119.151 57.6367C119.267 57.6367 119.361 57.7212 119.361 57.8255V60.1554C119.361 60.2597 119.267 60.3442 119.151 60.3442Z" fill="#263238"/>
<path d="M132.649 53.3549C132.533 53.3549 132.439 53.2705 132.439 53.1662V50.8362C132.439 50.7319 132.533 50.6475 132.649 50.6475C132.765 50.6475 132.86 50.7319 132.86 50.8362V53.1662C132.86 53.2705 132.765 53.3549 132.649 53.3549Z" fill="#263238"/>
<path d="M143.898 47.5327C143.782 47.5327 143.688 47.4482 143.688 47.3439V45.014C143.688 44.9096 143.782 44.8252 143.898 44.8252C144.015 44.8252 144.109 44.9096 144.109 45.014V47.3439C144.109 47.4482 144.015 47.5327 143.898 47.5327Z" fill="#263238"/>
<path d="M148.224 43.936V43.5087C148.224 43.0219 147.892 42.7934 147.482 43.007C147.072 43.2206 146.74 43.7869 146.74 44.2738V44.6563C146.74 44.8947 146.646 45.1729 146.491 45.4064C146.452 45.466 146.43 45.5356 146.43 45.6002C146.43 45.7244 146.513 45.779 146.618 45.7244L148.346 44.8302C148.451 44.7755 148.534 44.6315 148.534 44.5122C148.534 44.4526 148.512 44.4079 148.479 44.3831C148.324 44.3234 148.224 44.1645 148.224 43.936Z" fill="#27DEBF"/>
<path d="M147.842 45.2324C147.842 45.4659 147.681 45.7391 147.488 45.8435C147.294 45.9428 147.133 45.8385 147.133 45.6L147.842 45.2324Z" fill="#27DEBF"/>
<path d="M151.387 42.0581C151.326 42.0581 151.265 42.0432 151.215 42.0183C151.093 41.9538 151.027 41.8345 151.027 41.6706C151.027 41.3725 151.248 41.0248 151.536 40.8757C151.692 40.7963 151.847 40.7863 151.968 40.8459C152.09 40.9105 152.157 41.0297 152.157 41.1937C152.157 41.4918 151.93 41.8395 151.647 41.9885C151.559 42.0332 151.47 42.0581 151.387 42.0581Z" fill="#27DEBF"/>
<path d="M152.378 42.1722C152.19 42.0729 151.946 42.0878 151.697 42.2169L151.415 42.361C150.927 42.6144 150.539 43.2105 150.539 43.7172V43.8961C150.816 44.0352 151.193 44.0103 151.608 43.7967C152.024 43.5831 152.406 43.2155 152.677 42.7882V42.7435C152.677 42.4753 152.567 42.2666 152.373 42.1672L152.378 42.1722Z" fill="#27DEBF"/>
<path d="M152.76 40.9097C152.7 40.9097 152.639 40.8947 152.589 40.8699C152.467 40.8053 152.4 40.6861 152.4 40.5222C152.4 40.2241 152.628 39.8763 152.91 39.7273C153.065 39.6478 153.22 39.6379 153.342 39.6975C153.464 39.7621 153.53 39.8813 153.53 40.0452C153.53 40.3433 153.303 40.6911 153.021 40.8401C152.932 40.8848 152.844 40.9097 152.76 40.9097Z" fill="#27DEBF"/>
<path d="M153.752 41.0248C153.558 40.9254 153.32 40.9403 153.065 41.0695L152.788 41.2185C152.484 41.3725 152.223 41.6606 152.074 41.9736C152.295 41.8792 152.511 41.8743 152.677 41.9637C152.871 42.063 152.982 42.2717 152.982 42.5399V42.6492C153.403 42.4356 153.78 42.068 154.057 41.6457V41.601C154.057 41.3328 153.946 41.1241 153.752 41.0248Z" fill="#27DEBF"/>
<path d="M157.175 37.8447C156.399 38.2471 155.768 39.2308 155.768 40.0405C155.768 40.3883 155.89 40.6416 156.084 40.7907L155.907 41.5408C155.884 41.6352 155.956 41.6749 156.023 41.6054L156.654 40.9397C156.815 40.9248 156.992 40.8702 157.175 40.7758C157.95 40.3734 158.582 39.3897 158.582 38.58C158.582 37.7702 157.95 37.4424 157.175 37.8447Z" fill="#27DEBF"/>
<path d="M163.949 34.3075C164.071 34.243 164.187 34.2082 164.298 34.1983C164.409 34.1883 164.503 34.2032 164.58 34.2479C164.663 34.2877 164.724 34.3572 164.769 34.4466C164.813 34.5361 164.841 34.6503 164.841 34.7894C164.841 34.8987 164.83 35.003 164.802 35.0974C164.774 35.1918 164.741 35.2862 164.702 35.3756C164.663 35.4651 164.619 35.5495 164.569 35.624C164.519 35.7035 164.475 35.778 164.431 35.8525C164.386 35.9271 164.342 36.0016 164.309 36.0761C164.27 36.1506 164.248 36.2251 164.237 36.2996C164.231 36.3344 164.22 36.3692 164.204 36.404C164.187 36.4387 164.17 36.4586 164.148 36.4686L163.744 36.6772C163.744 36.6772 163.7 36.6871 163.683 36.6772C163.666 36.6623 163.655 36.6375 163.655 36.6027C163.655 36.5033 163.672 36.404 163.7 36.3096C163.727 36.2152 163.766 36.1258 163.81 36.0364C163.855 35.9469 163.905 35.8625 163.954 35.783C164.004 35.7035 164.054 35.624 164.098 35.5495C164.143 35.475 164.182 35.4054 164.209 35.3409C164.237 35.2713 164.254 35.2117 164.254 35.1471C164.254 35.0577 164.231 35.003 164.182 34.9782C164.132 34.9534 164.06 34.9683 163.954 35.0179C163.855 35.0676 163.783 35.1272 163.738 35.1918C163.694 35.2564 163.666 35.316 163.644 35.3756C163.622 35.4352 163.605 35.4899 163.594 35.5396C163.578 35.5892 163.55 35.624 163.511 35.6439L163.107 35.8525C163.107 35.8525 163.068 35.8625 163.057 35.8525C163.041 35.8426 163.035 35.8227 163.035 35.7929C163.035 35.6836 163.057 35.5644 163.101 35.4203C163.146 35.2812 163.201 35.1421 163.284 35.003C163.362 34.8639 163.461 34.7348 163.572 34.6106C163.683 34.4864 163.816 34.392 163.96 34.3125L163.949 34.3075ZM164.237 37.2783C164.237 37.3131 164.226 37.3479 164.209 37.3777C164.193 37.4124 164.17 37.4323 164.148 37.4472L163.733 37.6608C163.733 37.6608 163.689 37.6708 163.672 37.6608C163.655 37.6459 163.644 37.6211 163.644 37.5863V37.1243C163.644 37.0895 163.655 37.0597 163.672 37.025C163.689 36.9902 163.711 36.9703 163.733 36.9554L164.148 36.7418C164.148 36.7418 164.193 36.7318 164.209 36.7418C164.226 36.7567 164.237 36.7815 164.237 36.8163V37.2783Z" fill="#27DEBF"/>
<path d="M65.1531 94.0265V114.837C65.1531 115.522 65.6903 115.801 66.3495 115.458L148.889 72.7046C149.554 72.3618 150.091 71.5272 150.091 70.8416V50.0314C150.091 49.3458 149.554 49.0676 148.889 49.4104L66.3495 92.1636C65.6848 92.5063 65.1531 93.3409 65.1531 94.0265Z" fill="#27DEBF"/>
<path opacity="0.7" d="M65.1531 94.0265V114.837C65.1531 115.522 65.6903 115.801 66.3495 115.458L148.889 72.7046C149.554 72.3618 150.091 71.5272 150.091 70.8416V50.0314C150.091 49.3458 149.554 49.0676 148.889 49.4104L66.3495 92.1636C65.6848 92.5063 65.1531 93.3409 65.1531 94.0265Z" fill="white"/>
<path d="M71.9049 97.0569C69.418 98.3436 67.4074 101.473 67.4074 104.047C67.4074 106.62 69.4235 107.663 71.9049 106.377C74.3918 105.09 76.4079 101.96 76.4024 99.3868C76.4024 96.8135 74.3863 95.7703 71.9049 97.0569Z" fill="#27DEBF"/>
<path d="M71.3787 101.16C71.2347 101.16 71.1017 101.131 70.9799 101.066C70.7029 100.922 70.5479 100.634 70.5479 100.256C70.5479 99.5706 71.0685 98.7609 71.7332 98.4131C72.0932 98.2244 72.4477 98.1995 72.7302 98.3486C73.0071 98.4926 73.1622 98.7808 73.1622 99.1583C73.1622 99.8439 72.6415 100.654 71.9769 100.996C71.7719 101.101 71.567 101.155 71.3787 101.155V101.16Z" fill="white"/>
<path d="M73.6828 101.428C73.2397 101.2 72.6803 101.239 72.0987 101.537L71.4452 101.875C70.3097 102.466 69.4235 103.847 69.4235 105.02V105.432C70.066 105.75 70.9411 105.695 71.9104 105.194C72.8797 104.692 73.7549 103.842 74.3974 102.859V102.759C74.3974 102.143 74.1426 101.657 73.6884 101.423L73.6828 101.428Z" fill="white"/>
<path d="M79.5152 96.2069L89.0475 91.2689C89.5238 91.0205 89.9116 91.1795 89.9116 91.6167C89.9116 92.0538 89.5238 92.6102 89.0475 92.8586L79.5152 97.7966C79.0389 98.045 78.6512 97.8861 78.6512 97.4489C78.6512 97.0117 79.0389 96.4553 79.5152 96.2069Z" fill="#455A64"/>
<path d="M79.1607 99.5109L84.766 96.6097C85.0485 96.4656 85.2756 96.5551 85.2756 96.8134C85.2756 97.0717 85.0485 97.3996 84.766 97.5437L79.1607 100.445C78.8782 100.589 78.6512 100.5 78.6512 100.241C78.6512 99.9829 78.8782 99.655 79.1607 99.5109Z" fill="#455A64"/>
<path d="M66.355 115.487L148.894 72.7338C149.559 72.391 150.096 71.5564 150.096 70.8708V67.4629L65.1586 111.448V114.866C65.1586 115.551 65.6959 115.83 66.355 115.487Z" fill="#F5F5F5"/>
<path d="M87.6517 103.45C87.5354 103.45 87.4413 103.365 87.4413 103.261V100.931C87.4413 100.827 87.5354 100.742 87.6517 100.742C87.768 100.742 87.8622 100.827 87.8622 100.931V103.261C87.8622 103.365 87.768 103.45 87.6517 103.45Z" fill="#EBEBEB"/>
<path d="M77.5877 106.516L84.8879 102.695C85.3642 102.447 85.7519 102.636 85.7519 103.113C85.7519 103.59 85.3642 104.181 84.8879 104.424L77.5877 108.245C77.1114 108.493 76.7236 108.304 76.7236 107.827C76.7236 107.35 77.1114 106.764 77.5877 106.516Z" fill="#E0E0E0"/>
<path d="M100.84 96.5747C100.723 96.5747 100.629 96.4902 100.629 96.3859V94.056C100.629 93.9516 100.723 93.8672 100.84 93.8672C100.956 93.8672 101.05 93.9516 101.05 94.056V96.3859C101.05 96.4902 100.956 96.5747 100.84 96.5747Z" fill="#EBEBEB"/>
<path d="M90.7756 99.6446L98.0758 95.8244C98.5521 95.576 98.9398 95.7648 98.9398 96.2417C98.9398 96.7186 98.5521 97.3098 98.0758 97.5532L90.7756 101.373C90.2993 101.622 89.9116 101.433 89.9116 100.956C89.9116 100.479 90.2993 99.8881 90.7756 99.6446Z" fill="#E0E0E0"/>
<path d="M114.028 89.7045C113.911 89.7045 113.817 89.6201 113.817 89.5158V87.1859C113.817 87.0815 113.911 86.9971 114.028 86.9971C114.144 86.9971 114.238 87.0815 114.238 87.1859V89.5158C114.238 89.6201 114.144 89.7045 114.028 89.7045Z" fill="#EBEBEB"/>
<path d="M103.964 92.7696L111.264 88.9494C111.74 88.701 112.128 88.8898 112.128 89.3667C112.128 89.8436 111.74 90.4348 111.264 90.6782L103.964 94.4984C103.487 94.7468 103.099 94.5581 103.099 94.0812C103.099 93.6042 103.487 93.0131 103.964 92.7696Z" fill="#E0E0E0"/>
<path d="M127.215 82.8286C127.099 82.8286 127.005 82.7441 127.005 82.6398V80.3099C127.005 80.2055 127.099 80.1211 127.215 80.1211C127.332 80.1211 127.426 80.2055 127.426 80.3099V82.6398C127.426 82.7441 127.332 82.8286 127.215 82.8286Z" fill="#EBEBEB"/>
<path d="M117.146 85.8986L124.446 82.0783C124.922 81.8299 125.31 82.0187 125.31 82.4956C125.31 82.9725 124.922 83.5637 124.446 83.8071L117.146 87.6274C116.67 87.8757 116.282 87.687 116.282 87.2101C116.282 86.7331 116.67 86.142 117.146 85.8986Z" fill="#E0E0E0"/>
<path d="M130.334 79.0236L137.634 75.2033C138.11 74.9549 138.498 75.1437 138.498 75.6206C138.498 76.0975 138.11 76.6887 137.634 76.9321L130.334 80.7524C129.857 81.0007 129.47 80.812 129.47 80.3351C129.47 79.8581 129.857 79.2719 130.334 79.0236Z" fill="#E0E0E0"/>
<path d="M62.2563 185.215L69.6229 181.41C69.6229 181.41 74.1924 169.348 73.0348 158.24C71.5947 144.434 64.3278 139.586 60.0574 141.126C55.7869 142.666 56.6676 148.165 61.1928 155.542C64.782 161.389 64.7875 174.867 62.2563 185.215Z" fill="#27DEBF"/>
<path opacity="0.1" d="M62.2563 185.215L69.6229 181.41C69.6229 181.41 74.1924 169.348 73.0348 158.24C71.5947 144.434 64.3278 139.586 60.0574 141.126C55.7869 142.666 56.6676 148.165 61.1928 155.542C64.782 161.389 64.7875 174.867 62.2563 185.215Z" fill="black"/>
<path d="M65.7956 183.705C65.934 183.705 66.067 183.626 66.1113 183.496C70.8525 170.476 71.0519 152.189 62.079 143.947C61.9516 143.828 61.7412 143.828 61.6082 143.943C61.4753 144.057 61.4753 144.246 61.6082 144.365C70.0771 152.144 70.2322 170.277 65.4854 183.313C65.43 183.472 65.5242 183.64 65.7014 183.69C65.7346 183.7 65.7734 183.705 65.8066 183.705H65.7956Z" fill="white"/>
<path d="M49.0296 192.065C48.2652 192.458 46.6977 191.598 46.094 191.236C45.0638 190.615 44.2274 189.736 43.6735 188.747C43.0255 187.589 42.8649 186.352 43.0698 185.076C43.1751 184.415 43.38 183.764 43.5905 183.123C43.7954 182.492 43.9948 181.861 44.1997 181.226C44.3991 180.6 44.6041 179.959 44.5099 179.313C44.3271 178.016 43.0421 177.107 41.8734 176.322C40.5829 175.458 39.2425 174.31 39.248 172.75C39.2536 171.548 39.9515 170.426 40.7823 169.482C41.6131 168.538 42.6046 167.703 43.3523 166.705C43.8951 165.984 44.316 165.145 44.2274 164.28C44.172 163.744 43.9228 163.237 43.6403 162.765C43.0255 161.747 42.2168 160.818 41.7903 159.725C41.3639 158.632 41.4248 157.276 42.3775 156.496C43.1584 155.855 44.316 155.765 45.374 155.825C46.3488 155.885 47.307 156.277 48.16 156.704C50.9239 158.08 52.5024 161.016 55.4325 162.08C56.5624 162.487 57.8031 162.576 58.9828 162.86C60.1626 163.138 61.3645 163.679 61.9073 164.658C62.9819 166.585 60.9879 168.96 61.7412 171.007C62.4114 172.82 64.3721 173.511 65.4743 175.145C65.9562 175.86 66.067 176.685 65.9894 177.515C65.8565 178.921 65.6294 179.954 64.8761 181.519C64.2558 182.81 62.4224 185.125 62.4224 185.125C62.3781 185.165 49.1514 192.001 49.0351 192.06L49.0296 192.065Z" fill="#27DEBF"/>
<path d="M56.9279 188.24C57.0775 188.24 57.2049 188.141 57.2215 188.007C58.645 177.892 53.2612 164.245 45.2189 157.589C45.097 157.489 44.9087 157.494 44.7979 157.603C44.6871 157.713 44.6927 157.882 44.8145 157.981C52.7295 164.534 58.0301 177.972 56.6288 187.937C56.6067 188.081 56.723 188.215 56.8892 188.235C56.9002 188.235 56.9168 188.235 56.9279 188.235V188.24Z" fill="white"/>
<path d="M55.5488 175.294C55.6374 175.294 55.7315 175.259 55.7869 175.185C55.8866 175.066 55.8589 174.902 55.726 174.812C51.2894 171.827 44.5099 172.348 44.2219 172.368C44.0557 172.383 43.9394 172.512 43.9505 172.661C43.9671 172.81 44.1166 172.915 44.2717 172.905C44.3382 172.9 51.1122 172.383 55.366 175.24C55.4214 175.274 55.4823 175.294 55.5432 175.294H55.5488Z" fill="white"/>
<path d="M54.8841 172.815C55.0447 172.815 55.1777 172.701 55.1832 172.557C55.3826 167.922 59.2875 165.125 59.3262 165.095C59.4536 165.006 59.4758 164.837 59.3761 164.723C59.2764 164.608 59.0881 164.589 58.9607 164.678C58.789 164.797 54.801 167.654 54.5906 172.537C54.585 172.686 54.7124 172.81 54.8786 172.815C54.8786 172.815 54.8841 172.815 54.8896 172.815H54.8841Z" fill="white"/>
<path d="M128.152 183.651C118.198 178.499 111.408 169.557 109.696 159.368L105.769 135.984C104.257 126.978 98.7626 118.895 90.5264 113.569L85.403 110.251V112.874L88.1835 114.672C96.4031 119.988 101.892 128.046 103.415 137.033L107.42 160.575C109.148 170.744 115.933 179.657 125.864 184.798L128.152 185.981V183.651Z" fill="#EBEBEB"/>
<path d="M128.152 183.362C118.292 178.205 111.668 169.457 109.968 159.328L106.041 135.944C104.529 126.927 98.9288 118.701 90.687 113.365L85.907 110.275L148.379 77.9248L153.359 81.1489C161.484 86.4049 166.995 94.5174 168.485 103.4L172.412 126.783C174.124 136.967 180.737 145.78 190.591 151.026L128.146 183.362H128.152Z" fill="#FAFAFA"/>
<path d="M148.368 78.2231L153.204 81.3528C161.268 86.574 166.74 94.6219 168.219 103.44L172.146 126.823C173.847 136.943 180.355 145.716 190.053 151.027L128.152 183.079C118.442 177.952 111.923 169.298 110.239 159.293L106.312 135.91C104.789 126.828 99.1503 118.537 90.8476 113.162L86.4166 110.295L148.363 78.2181M148.396 77.627L85.3974 110.251L90.5208 113.569C98.757 118.9 104.252 126.977 105.764 135.984L109.691 159.368C111.402 169.562 118.198 178.499 128.146 183.65L191.144 151.027C181.191 145.875 174.401 136.933 172.689 126.744L168.762 103.36C167.25 94.3536 161.756 86.271 153.519 80.9455L148.396 77.627Z" fill="#E0E0E0"/>
<path d="M128.152 183.65L191.15 151.031V153.361L128.152 185.98V183.65Z" fill="#F5F5F5"/>
<path d="M97.1785 108.497C94.9796 109.337 94.747 111.061 96.6579 112.348C98.5687 113.634 101.892 114.002 104.091 113.162C106.29 112.323 106.528 110.599 104.612 109.312C102.701 108.026 99.3719 107.663 97.1785 108.497Z" fill="#27DEBF"/>
<path d="M99.5547 110.594C99.3719 110.604 99.178 110.599 98.9786 110.579C98.5189 110.529 98.109 110.395 97.8321 110.211C97.3225 109.868 97.3834 109.421 97.9706 109.198C98.2918 109.074 98.7183 109.034 99.1836 109.088C99.6433 109.138 100.053 109.272 100.33 109.456C100.84 109.799 100.779 110.246 100.192 110.469C100.009 110.539 99.7928 110.584 99.5547 110.599V110.594Z" fill="white"/>
<path d="M102.673 110.544C101.942 110.464 101.261 110.529 100.745 110.723L100.169 110.941C99.1669 111.324 99.0617 112.084 99.9368 112.675L100.247 112.884C101.294 112.993 102.512 112.963 103.382 112.66C104.329 112.332 104.916 111.95 104.999 111.413L104.567 111.16C104.108 110.852 103.426 110.628 102.679 110.544H102.673Z" fill="white"/>
<path d="M107.403 104.831L125.903 95.2532C126.567 94.9104 127.62 94.9402 128.224 95.3625C128.279 95.4022 128.334 95.4419 128.395 95.4817C128.993 95.9089 128.927 96.5498 128.262 96.8975L109.779 106.5C109.12 106.843 108.118 106.754 107.519 106.326C107.453 106.282 107.387 106.232 107.326 106.187C106.722 105.765 106.738 105.179 107.403 104.836V104.831Z" fill="#455A64"/>
<path d="M111.469 108.696L120.73 103.902C121.062 103.728 121.106 103.4 120.829 103.162L120.663 103.018C120.386 102.779 119.893 102.73 119.566 102.903L110.355 107.732C110.023 107.906 109.979 108.239 110.256 108.477L110.372 108.577C110.649 108.815 111.142 108.87 111.469 108.696Z" fill="#455A64"/>
<path opacity="0.2" d="M105.415 117.802L155.347 91.9444C156.012 91.6016 156.915 91.7705 157.347 92.3368C157.38 92.3815 157.413 92.4262 157.446 92.4709C157.873 93.0373 157.662 93.7924 157.003 94.1352L107.06 120.013C106.395 120.355 105.537 120.162 105.116 119.59C105.082 119.541 105.044 119.496 105.01 119.446C104.584 118.875 104.756 118.15 105.415 117.807V117.802Z" fill="black"/>
<path opacity="0.2" d="M108.444 122.218L158.416 96.3409C159.08 95.9982 159.906 96.2118 160.238 96.8278C160.266 96.8775 160.288 96.9271 160.315 96.9718C160.642 97.5928 160.349 98.3827 159.684 98.7255L109.702 124.628C109.037 124.971 108.267 124.737 107.94 124.111C107.913 124.056 107.885 124.002 107.857 123.947C107.531 123.326 107.78 122.556 108.444 122.213V122.218Z" fill="black"/>
<path opacity="0.2" d="M110.693 127.007L160.703 101.11C161.368 100.767 162.11 101.016 162.326 101.671C162.348 101.746 162.376 101.815 162.398 101.89C162.609 102.551 162.226 103.365 161.567 103.708L111.541 129.625C110.876 129.968 110.195 129.705 109.984 129.044C109.957 128.965 109.934 128.885 109.907 128.806C109.691 128.15 110.023 127.345 110.688 127.002L110.693 127.007Z" fill="black"/>
<path opacity="0.2" d="M112.139 132.233L141.207 117.175C141.871 116.833 142.497 117.106 142.613 117.781L142.674 118.129C142.791 118.805 142.348 119.634 141.683 119.977L112.61 135.05C111.945 135.392 111.319 135.124 111.203 134.444C111.181 134.324 111.164 134.2 111.142 134.081C111.026 133.4 111.469 132.576 112.133 132.233H112.139Z" fill="black"/>
<path d="M172.246 146.407L124.673 171.047C123.349 171.733 121.494 171.425 120.658 170.272C117.65 166.139 115.639 160.987 114.631 154.827L112.731 143.5C112.504 142.144 113.391 140.49 114.72 139.804L162.376 115.124C163.7 114.439 164.957 114.98 165.184 116.336L167.089 127.668C167.854 133.515 169.837 138.672 173.055 143.133C173.886 144.285 173.575 145.721 172.252 146.407H172.246Z" fill="#27DEBF"/>
<path opacity="0.7" d="M172.246 146.407L124.673 171.047C123.349 171.733 121.494 171.425 120.658 170.272C117.65 166.139 115.639 160.987 114.631 154.827L112.731 143.5C112.504 142.144 113.391 140.49 114.72 139.804L162.376 115.124C163.7 114.439 164.957 114.98 165.184 116.336L167.089 127.668C167.854 133.515 169.837 138.672 173.055 143.133C173.886 144.285 173.575 145.721 172.252 146.407H172.246Z" fill="white"/>
<path d="M124.673 171.042L172.246 146.401C173.57 145.716 173.886 144.28 173.049 143.127C171.504 140.986 170.247 138.676 169.272 136.217L154.516 132.481L147.964 145.522L155.081 150.659L130.245 138.935L117.539 164.832C118.42 166.804 119.456 168.622 120.658 170.272C121.494 171.419 123.349 171.732 124.673 171.047V171.042Z" fill="#27DEBF"/>
<path d="M144.624 129.714C146.374 128.81 148.041 129.56 148.352 131.393C148.662 133.227 147.488 135.447 145.743 136.351C143.993 137.255 142.325 136.505 142.015 134.672C141.705 132.839 142.879 130.618 144.624 129.714Z" fill="#27DEBF"/>
<path d="M159.069 161.002C158.92 161.012 158.753 161.007 158.587 160.987C158.2 160.943 157.862 160.833 157.629 160.679C157.203 160.391 157.252 160.019 157.745 159.835C158.011 159.731 158.371 159.701 158.759 159.741C159.147 159.785 159.485 159.895 159.717 160.049C160.144 160.337 160.094 160.709 159.601 160.893C159.446 160.953 159.269 160.987 159.069 160.997V161.002Z" fill="#27DEBF"/>
<path d="M161.678 160.967C161.069 160.897 160.498 160.952 160.066 161.116L159.584 161.3C158.748 161.623 158.659 162.259 159.39 162.746L159.645 162.919C160.52 163.009 161.54 162.984 162.265 162.736C163.057 162.462 163.545 162.144 163.617 161.692L163.257 161.479C162.874 161.22 162.304 161.032 161.678 160.967Z" fill="#27DEBF"/>
<path d="M162.592 159.095L160.814 159.174L160.327 159.552C160.243 159.616 160.249 159.731 160.332 159.79L160.814 160.133L162.625 160.068L162.592 159.1V159.095ZM160.692 159.77C160.62 159.77 160.559 159.716 160.559 159.656C160.559 159.596 160.62 159.537 160.692 159.537C160.764 159.537 160.825 159.592 160.825 159.656C160.825 159.721 160.764 159.77 160.692 159.77Z" fill="#27DEBF"/>
<path d="M171.825 156.268C171.803 156.511 171.476 156.715 171.282 156.814C170.939 156.993 170.501 157.117 170.031 157.177C169.599 156.735 170.407 155.94 171.825 156.268Z" fill="#27DEBF"/>
<path d="M171.892 154.697C170.584 153.729 168.535 153.371 167.089 154.111C165.644 154.851 165.367 156.416 166.691 157.385C168.014 158.359 170.385 158.374 171.808 157.628C173.237 156.883 173.193 155.666 171.886 154.697H171.892ZM169.698 154.494C169.931 154.379 170.252 154.434 170.44 154.598C170.629 154.762 170.607 154.981 170.374 155.1C170.141 155.219 169.792 155.194 169.604 155.025C169.416 154.856 169.471 154.613 169.698 154.499V154.494ZM167.073 156.297C166.884 156.128 166.94 155.885 167.167 155.77C167.394 155.656 167.721 155.711 167.909 155.875C168.097 156.039 168.075 156.257 167.843 156.377C167.616 156.496 167.261 156.471 167.073 156.302V156.297ZM171.421 157.022C170.895 157.296 170.169 157.455 169.421 157.455C168.768 157.455 168.164 157.335 167.677 157.122L171.393 155.234C171.869 155.587 172.124 155.964 172.091 156.282C172.063 156.62 171.709 156.868 171.415 157.022H171.421Z" fill="#27DEBF"/>
<path d="M179.707 150.336C179.591 150.167 179.43 149.998 179.214 149.839C178.3 149.164 176.865 148.91 175.857 149.432C174.849 149.954 174.655 151.042 175.58 151.722C175.691 151.802 175.819 151.871 175.952 151.941C175.952 151.941 175.963 151.946 175.968 151.946C177.619 152.795 180.648 152.899 180.648 152.899C180.648 152.899 180.66 151.494 179.707 150.331V150.336ZM178.267 151.275C177.79 151.523 176.998 151.518 176.555 151.196C176.112 150.873 176.206 150.346 176.688 150.103C177.17 149.854 177.857 149.973 178.294 150.296C178.732 150.619 178.743 151.027 178.267 151.275Z" fill="#27DEBF"/>
<path d="M239.881 155.578L232.758 174.222C232.553 174.764 231.694 174.764 231.489 174.222L224.455 155.429L239.875 155.583L239.881 155.578Z" fill="#FFA8A7"/>
<path d="M231.489 174.216C231.694 174.758 232.547 174.763 232.758 174.216L234.148 170.575C232.924 171.161 231.439 171.087 230.298 170.381L229.988 170.188L231.495 174.206L231.489 174.216Z" fill="#263238"/>
<path d="M224.726 72.2921V74.1153L224.704 76.316L224.455 155.424C226.083 157.093 228.498 157.942 230.946 158.166C234.674 158.514 238.501 157.416 239.864 155.578L240.113 76.5147L240.124 72.307C239.947 75.0294 224.588 75.0244 224.721 72.2871L224.726 72.2921Z" fill="#27DEBF"/>
<path d="M224.682 79.2369V83.3105C224.632 84.4929 227.435 85.253 230.675 85.5212C234.973 85.8839 240.036 84.8406 240.097 83.2758L240.108 80.2752L240.091 79.2021C240.03 80.767 234.968 81.8152 230.664 81.4476C227.562 81.1893 224.848 80.464 224.693 79.3661V79.3562C224.676 79.3214 224.676 79.2816 224.682 79.2419V79.2369Z" fill="#EBEBEB"/>
<path d="M224.693 80.2501C224.582 82.9923 239.991 82.9576 240.102 80.2153L240.124 76.1367C240.013 78.879 224.604 78.9137 224.715 76.1715L224.693 80.2501Z" fill="#27DEBF"/>
<path d="M224.726 72.2921L224.704 76.316C224.571 79.0086 239.443 79.0881 240.113 76.5147C240.13 76.47 240.135 76.4154 240.141 76.3607L240.124 72.307C239.947 75.0294 224.588 75.0244 224.721 72.2871L224.726 72.2921Z" fill="#EBEBEB"/>
<path d="M240.202 55.0433V54.8743C240.202 52.9121 236.751 51.3174 232.497 51.3174C228.243 51.3174 224.793 52.9121 224.793 54.8743V56.7273L224.726 72.2965C224.665 73.464 227.44 74.234 230.647 74.5171C234.945 74.8947 240.03 73.8763 240.13 72.3164C240.13 72.3164 240.132 72.3098 240.135 72.2965L240.202 55.1575C240.202 55.1327 240.202 55.0582 240.202 55.0482V55.0433Z" fill="#F28F8F"/>
<path opacity="0.2" d="M232.503 58.4264C236.758 58.4264 240.207 56.8339 240.207 54.8695C240.207 52.905 236.758 51.3125 232.503 51.3125C228.248 51.3125 224.798 52.905 224.798 54.8695C224.798 56.8339 228.248 58.4264 232.503 58.4264Z" fill="white"/>
<path opacity="0.1" d="M240.119 76.514L240.202 55.0381C240.097 56.7222 236.906 58.3119 233.417 58.4261L233.167 158.23L232.758 174.221L239.881 155.577H239.869L240.119 76.514Z" fill="black"/>
<path d="M215.2 93.1468C218.13 92.7642 221.741 94.7414 224.256 97.9109C226.77 101.08 235.533 108.795 236.491 111.25C237.189 113.038 236.779 116.401 232.652 114.821C228.659 113.296 215.925 102.094 215.925 102.094L215.194 93.1468H215.2Z" fill="#B16668"/>
<path d="M213.798 93.1466C213.798 93.1466 215.654 92.7988 216.667 92.8584C217.681 92.9181 219.957 93.4595 222.3 95.5063C224.643 97.553 230.725 104.165 230.725 104.165C230.725 104.165 230.996 106.018 228.958 108.09C226.92 110.161 225.02 110.161 225.02 110.161L215.986 103.455L213.804 93.1466H213.798Z" fill="#37474F"/>
<path d="M233.649 107.613L240.052 99.2468L240.069 93.1016C240.069 93.1016 241.487 93.5288 242.052 95.506C242.617 97.4882 243.32 99.7932 243.038 101.482C242.755 103.171 238.308 113.38 235.915 114.826C233.511 116.276 233.649 107.613 233.649 107.613Z" fill="#B16668"/>
<path d="M204.737 90.3747L205.983 97.4439L213.798 97.0714L212.679 88.8496L204.737 90.3747Z" fill="#B16668"/>
<path d="M199.475 81.6954C199.475 81.6954 197.614 84.229 197.824 84.4774C198.035 84.7258 199.408 84.9493 199.408 84.9493L199.475 81.6904V81.6954Z" fill="#9A4A4D"/>
<path d="M204.648 74.6807C200.876 75.3961 199.791 76.8815 199.436 82.2517C199.065 87.8654 199.702 89.6289 200.527 90.384C201.081 90.8957 204.166 90.9851 205.723 90.6026C207.672 90.1207 212.07 88.7248 214.131 85.8981C216.557 82.5746 217.194 78.0738 214.596 76.2257C210.946 73.6275 206.182 74.3876 204.648 74.6758V74.6807Z" fill="#B16668"/>
<path d="M204.803 90.7616C204.803 90.7616 205.856 90.5927 206.792 90.3145C206.792 90.3145 206.243 90.9801 204.897 91.2931L204.803 90.7665V90.7616Z" fill="#9A4A4D"/>
<path d="M199.198 76.385C199.685 76.6483 200.25 76.8321 200.837 76.9861C201.757 77.2246 201.618 77.5376 201.746 78.2877C201.862 78.9584 202.217 79.6141 202.782 80.0712C203.136 80.3643 203.407 80.3891 203.524 80.8362C203.646 81.2833 203.54 81.7851 203.546 82.2421C203.557 83.1761 204.222 83.8815 204.543 82.6346C204.543 82.6346 205.141 80.558 207.091 80.8213C209.051 81.0846 209.212 83.0519 208.282 84.5969C207.717 85.5358 206.199 85.2924 206.199 85.2924C206.199 85.2924 205.856 87.8806 208.237 89.9969C208.237 89.9969 210.176 91.2885 213.2 89.9472C214.961 87.8856 215.654 86.7976 216.667 85.2228C218.019 83.1115 219.188 80.5232 218.728 78.0393C218.556 77.1252 218.141 76.2459 217.415 75.5753C216.889 75.0884 216.928 74.994 216.784 74.3333C216.662 73.7819 216.329 73.2603 215.842 72.9075C215.083 72.3611 213.987 72.227 213.095 72.5747C213.095 71.7103 212.275 70.9651 211.345 70.7366C210.414 70.5131 209.411 70.7217 208.536 71.0844C208.032 70.2746 207.052 69.7182 206.022 69.6636C204.992 69.6039 203.939 70.0461 203.33 70.7962C203.07 70.3889 202.543 70.1603 202.023 70.1206C201.502 70.0809 200.981 70.1951 200.483 70.3392C200.068 70.4584 199.663 70.5975 199.287 70.7962C197.913 71.5265 197.182 73.1162 197.586 74.5022C197.846 75.4014 198.434 75.9826 199.192 76.385H199.198Z" fill="#263238"/>
<path d="M216.85 75.8235L219.104 74.6312C218.739 74.0748 217.936 73.886 217.31 74.2139C216.69 74.5418 216.479 75.2621 216.845 75.8235H216.85Z" fill="#263238"/>
<path d="M218.955 180.839L219.005 181.291C219.071 181.892 219.138 182.493 219.055 183.095C218.999 183.512 218.866 184.073 218.434 184.302C217.997 184.535 217.459 184.709 216.961 184.818C215.837 185.062 214.596 184.977 213.549 184.52C212.663 184.133 211.97 183.532 211.007 183.288C210.026 183.04 209.007 182.945 207.994 182.841C207.545 182.796 207.091 182.747 206.664 182.623C206.332 182.523 206.016 182.384 205.706 182.235C204.659 181.743 203.629 181.177 202.859 180.372C202.361 179.856 201.989 179.225 201.84 178.549C201.751 178.152 201.574 177.004 202.311 177.034C205.939 177.178 209.528 177.878 213.156 177.839C213.394 177.839 213.627 177.829 213.859 177.863C214.308 177.928 214.712 178.142 215.078 178.375C215.504 178.648 215.659 178.658 216.191 178.619C216.828 178.569 217.448 178.499 218.074 178.643C218.335 178.703 218.623 178.812 218.722 179.036C218.755 179.115 218.767 179.2 218.778 179.284C218.833 179.801 218.888 180.318 218.949 180.839H218.955Z" fill="#263238"/>
<path d="M218.584 176.944L218.395 179.398C218.218 180.332 214.673 180.903 213.942 179.249L213.593 176.467L218.584 176.944Z" fill="#B16668"/>
<path d="M205.086 186.641C205.086 186.641 205.518 187.918 205.745 189.03C205.922 189.915 206.171 191.39 205.811 192.046C205.451 192.702 204.1 193.099 202.023 193.044C200.677 193.01 198.555 193.785 197.104 194.475C195.603 195.185 192.507 195.419 190.945 195.225C189.101 194.992 187.206 193.993 186.929 193.298C186.647 192.607 187.062 191.902 191.46 190.322C191.499 190.307 197.564 188.673 199.724 186.631L205.091 186.641H205.086Z" fill="#263238"/>
<path d="M205.124 185.067C205.124 185.067 205.091 186.15 205.08 186.766C205.069 187.382 204.233 188.286 202.134 188.176C200.655 188.097 199.635 187.719 199.719 186.631L199.757 185.057L205.124 185.067Z" fill="#B16668"/>
<path d="M220.013 158.116C219.387 153.342 218.922 150.61 218.922 150.61C218.922 150.61 219.027 143.963 219.464 137.768C219.935 131.071 219.83 122.646 220.013 120.977C220.013 120.977 196.035 116.381 195.841 124.136C195.614 133.148 196.285 151.792 196.429 154.221C196.628 157.629 196.639 161.176 197.281 166.706C197.918 172.165 199.763 185.062 199.763 185.062C202.482 186.453 205.13 185.072 205.13 185.072C205.13 185.072 207.218 169.617 207.135 165.687C207.035 160.888 206.227 157.192 206.227 157.192L208.115 139.7C208.115 139.7 208.858 145.11 209.057 148.518C209.256 151.926 209.777 154.008 210.719 160.352C211.533 165.856 213.604 177.466 213.604 177.466C216.324 178.857 218.706 177.282 218.706 177.282C218.706 177.282 220.65 162.895 220.024 158.121L220.013 158.116Z" fill="#27DEBF"/>
<path d="M220.013 158.116C219.387 153.342 218.922 150.61 218.922 150.61C218.922 150.61 219.027 143.963 219.464 137.768C219.935 131.071 219.83 122.646 220.013 120.977C220.013 120.977 196.035 116.381 195.841 124.136C195.614 133.148 196.285 151.792 196.429 154.221C196.628 157.629 196.639 161.176 197.281 166.706C197.918 172.165 199.763 185.062 199.763 185.062C202.482 186.453 205.13 185.072 205.13 185.072C205.13 185.072 207.218 169.617 207.135 165.687C207.035 160.888 206.227 157.192 206.227 157.192L208.115 139.7C208.115 139.7 208.858 145.11 209.057 148.518C209.256 151.926 209.777 154.008 210.719 160.352C211.533 165.856 213.604 177.466 213.604 177.466C216.324 178.857 218.706 177.282 218.706 177.282C218.706 177.282 220.65 162.895 220.024 158.121L220.013 158.116Z" fill="#2E7D32"/>
<path opacity="0.15" d="M217.232 131.558C217.232 131.558 215.571 134.017 210.53 135.82L209.129 140.043L208.974 147.465C208.78 145.075 208.487 142.462 208.11 139.695L208.68 135.343C208.68 135.343 214.247 133.833 217.232 131.558Z" fill="black"/>
<path d="M220.938 97.7215C219.974 94.6464 217.714 93.2902 215.205 93.1461C214.568 93.1114 213.272 93.161 213.272 93.161C213.449 94.4626 208.974 95.3817 205.496 94.6464C204.449 94.8948 202.71 95.2475 201.834 95.5059C199.336 96.251 196.334 99.0579 195.947 106.371C195.947 106.371 195.548 122.094 195.675 126.664C201.851 128.999 207.811 129.292 211.411 128.666C218.905 127.355 220.135 124.478 220.135 124.478C220.135 124.478 220.063 120.479 219.786 114.11C221.054 105.049 221.364 99.0579 220.943 97.7265L220.938 97.7215Z" fill="#455A64"/>
<path d="M191.721 123.783C193.161 124.702 193.792 125.686 193.908 127.28C194.014 128.706 194.008 130.261 194.756 131.553C194.878 131.766 195.531 132.248 195.786 132.179V130.35C196.207 129.878 197.342 128.999 197.636 128.458C198.129 127.553 197.553 126.451 197.852 125.482C197.979 125.06 198.223 124.732 198.229 124.28C198.24 123.217 197.907 122.208 196.982 121.528C195.897 120.728 194.9 119.734 193.908 118.84C192.623 117.682 190.84 115.978 189.555 114.816L198.179 107.394C199.17 106.54 200.007 105.551 200.638 104.458C202.045 102.024 203.978 97.7565 201.829 95.4961C198.755 95.4961 197.005 95.9184 193.87 99.2021C191.161 102.034 182.515 111.329 181.402 112.903C180.288 114.478 179.651 115.556 181.784 117.305C183.268 118.522 185.373 119.838 187.223 121.031C188.674 121.965 190.264 122.849 191.721 123.773V123.783Z" fill="#B16668"/>
<path d="M189.555 114.826C189.555 114.826 188.375 115.884 186.907 116.451C186.907 116.451 188.912 116.222 190.148 115.373L189.549 114.826H189.555Z" fill="#9A4A4D"/>
<path d="M202.793 95.2583C202.793 95.2583 200.937 95.144 199.071 95.5067C197.204 95.8693 195.952 96.7238 192.712 100.003C189.472 103.281 187.206 105.974 187.206 105.974C187.206 105.974 186.276 107.827 188.874 109.918C191.471 112.01 193.803 111.652 193.803 111.652L201.07 105.318C201.07 105.318 206.249 100.445 202.793 95.2583Z" fill="#37474F"/>
</svg>
